<?xml version="1.0" encoding="utf-8"?>
<!-- Generator: Adobe Illustrator 22.0.0, SVG Export Plug-In . SVG Version: 6.00 Build 0)  -->
<svg version="1.1" id="Layer_1" xmlns="http://www.w3.org/2000/svg" xmlns:xlink="http://www.w3.org/1999/xlink" x="0px" y="0px"
	 viewBox="0 0 96 96" style="enable-background:new 0 0 96 96;" xml:space="preserve">
<style type="text/css">
	.st0{fill:#408BFC;}
</style>
<title>technology-artificial-intelligence-icon</title>
<path class="st0" d="M93,46.5c0-6.3-3.4-12.2-9-15.2c3.1-8.9-1.6-18.6-10.5-21.6c-3.8-1.3-7.9-1.3-11.6,0.2C59.1,3.9,52,1.3,46,4.1
	c-3.8,1.8-6.4,5.5-6.8,9.7c-0.1,0.2-0.1,0.5-0.1,0.7v65.2c0,0.2,0,0.4,0.1,0.5c0.3,7.3,6.4,13,13.8,12.8c5.6-0.2,10.4-3.9,12.1-9.2
	c8.6,2.1,17.3-3.2,19.4-11.9c0.3-1.3,0.5-2.6,0.4-4c0-2.1-0.4-4.2-1.2-6.1C89.5,58.8,93,52.9,93,46.5z M76.4,60.2
	c-0.1,0-0.2,0-0.2,0h-0.2c-1.9-4.4-6.8-6.8-11.4-5.6l-1.8,0.5l1,3.6l1.8-0.5c2.8-0.8,5.8,0.6,7,3.2c-2.2,1.4-3.5,3.8-3.5,6.4v1.8
	h3.7v-1.8c0-2.1,1.7-3.9,3.9-3.9c0.1,0,0.3,0,0.4,0c1.2-0.1,2.3-0.3,3.4-0.6c0.6,1.5,0.9,3.1,0.9,4.6c0.1,6.8-5.4,12.5-12.2,12.6
	c-1.1,0-2.2-0.1-3.2-0.4c0-0.2,0-0.3,0-0.5c0-4.9-2.6-9.4-6.9-11.7l-0.2-0.1c-2.5-1.4-4.1-3.9-4.3-6.8l-0.1-1.8l-3.7,0.2l0.1,1.8
	c0.3,4.2,2.7,8,6.4,9.9h0.1c3.5,1.9,5.5,5.9,4.8,9.9l-0.6,1.5l0.2,0.1c-1.6,5-7,7.8-12.1,6.2c-4-1.3-6.7-5-6.6-9.2
	c0-0.2,0-0.3-0.1-0.5V51.8C53.2,56,65.1,51,69.3,40.6c0.3-0.8,0.6-1.7,0.8-2.6l0.5-1.8l-3.6-1L66.5,37c-2.2,8.9-11.2,14.3-20.1,12.1
	c-1.2-0.3-2.4-0.7-3.5-1.3h-0.1V15.5c0.1-0.2,0.1-0.3,0.1-0.5c0-4.5,3.6-8.3,8.2-8.3c3.2,0,6.1,1.8,7.5,4.7l0,0l0.3,0.5
	c0.4,1,0.6,2,0.6,3.1c0,0.2,0,0.5,0,0.7L59,17.4v0c-0.6,2-2,3.8-3.9,4.8c-0.1,0.1-0.2,0.1-0.3,0.2c-5.7,3-7.9,10-5.1,15.8l0.8,1.7
	l3.3-1.6L53,36.6c-2-4.1-0.3-9,3.7-11c0.1-0.1,0.3-0.2,0.4-0.3c0.8-0.5,1.6-1.1,2.3-1.8c1,2.7,2.9,5,5.4,6.4l1.6,0.9l1.8-3.2
	l-1.6-0.9c-3-1.7-4.6-5.1-4-8.5c0.3-1.1,0.4-2.1,0.4-3.2c0-0.5,0-1.1-0.1-1.6c1.6-0.7,3.3-1,5-1c7.4,0,13.3,6,13.3,13.4
	c0,1.4-0.2,2.7-0.6,4l-1.1,2.6c-1.1,2-2.7,3.7-4.7,4.8l-1.6,1l1.9,3.2l1.6-1c2.3-1.4,4.3-3.4,5.7-5.7c6.5,3.8,8.7,12.3,4.9,18.8
	C85.1,57.4,81,59.9,76.4,60.2z M25.5,33.2v3.7h-8.6v-3.7H25.5z M11.6,36.8H3v-3.7h8.6V36.8z M25.6,59v3.7H17V59H25.6z M3,59h8.6v3.7
	H3V59z M13.9,46.2h20v3.7h-20L13.9,46.2z M13.9,18.9h20v3.7h-20L13.9,18.9z M13.9,72.6h20v3.7h-20L13.9,72.6z"/>
</svg>
